# xmcd
#
# Track frame offsets: 
#        182
#        10047
#        22040
#        33400
#        46312
#        59242
#        71600
#        83842
#        95655
#        109227
#        119625
#        130982
#
# Disc length: 1910 seconds
#
# Revision: 4
# Processed by: cddbd v1.5.2PL0 Copyright (c) Steve Scherf et al.
# Submitted via: ExactAudioCopyFreeDBPlugin 1.0
#
DISCID=ab07740c
DTITLE=Various Artist - Country Time
DYEAR=1992
DGENRE=Country
TTITLE0=Ned Miller - From A Jack To A King
TTITLE1=Skeet Davis - The End Of The World
TTITLE2=Wynn Stewart - It's Such A Pretty World Today
TTITLE3=Jerry Wallace - In The Misty Moonlight
TTITLE4=Claud King - Wolverton Mountain
TTITLE5=Johnny Russel - Rednecks, White Socks and Blue Ribbon Beer
TTITLE6=Sandy Posey - Youn Love
TTITLE7=Henson Cargill - Skip A Rope
TTITLE8=David Houston - Almost Persueaded
TTITLE9=Ferlin Husky - Gone
TTITLE10=Porter Wagoner - Misery Loves Company
TTITLE11=Tommy Cash - Six White Hourses
EXTD=
EXTT0=
EXTT1=
EXTT2=
EXTT3=
EXTT4=
EXTT5=
EXTT6=
EXTT7=
EXTT8=
EXTT9=
EXTT10=
EXTT11=
PLAYORDER=
